<svg width="1379" height="128" viewBox="0 0 1379 128" fill="none" xmlns="http://www.w3.org/2000/svg">
<path d="M1279.04 125.168C1264.45 124.428 1260.43 107.156 1270.62 99.754C1275.13 96.4759 1277.14 92.4223 1277.32 83.7511C1277.6 71.9075 1277.74 60.4869 1277.46 44.2019C1277.32 36.5177 1275.24 32.9576 1268.22 25.1676C1260.75 16.8489 1265.44 2.78462 1279.47 2.0444C1289.97 1.48041 1298.68 1.51566 1311.97 2.0444C1344.11 3.31335 1362.94 19.0696 1362.94 39.8663C1362.94 48.2203 1360.05 56.4685 1352.96 65.4217C1348.13 71.5197 1347.99 74.9036 1352.11 81.0369C1355.11 85.4783 1356.87 87.7694 1359.16 90.5893C1362.41 94.5372 1364.42 96.0882 1367.1 96.9341C1384.76 102.468 1381.41 124.886 1364.52 124.886H1353.1C1343.06 124.886 1337.66 121.573 1332.59 114.171C1328.5 108.178 1324.73 101.093 1319.33 92.9863C1317.18 89.7434 1315.67 88.1572 1314.01 88.1572H1313.87C1312.53 88.1572 1311.72 89.0736 1311.72 90.6598V90.9418C1311.72 93.4092 1314.19 96.0882 1319.19 98.6613C1331.42 104.936 1327.55 124.463 1312.11 125.168C1297.9 125.838 1290.43 125.732 1279.04 125.168ZM1312.25 43.6027C1312.25 51.005 1315 53.0494 1318.73 51.9919C1324.37 50.4057 1325.54 45.9291 1325.54 41.1705C1325.54 35.6717 1322.93 31.4771 1318.31 30.4549C1315 29.7147 1312.35 31.3714 1312.25 36.694V43.6027Z" fill="white"/>
<path d="M1251.94 125.486C1248.27 125.591 1244.18 125.662 1239.92 125.732C1232.73 125.838 1224.9 125.873 1217.18 125.873C1203.58 125.838 1190.36 125.627 1181.79 125.133C1166.35 124.217 1162.69 107.826 1172.84 99.9303C1177.14 96.5817 1179.57 92.1756 1179.78 83.6101C1179.99 74.1987 1180.03 59.923 1179.75 44.484C1179.61 35.6718 1177.84 32.9224 1170.51 25.2734C1163.29 17.7654 1166.71 2.57319 1182.11 2.0797C1195.75 1.65672 1207.84 1.44522 1218.59 1.44522C1223.6 1.40998 1228.32 1.44522 1232.8 1.51572C1236.53 1.55097 1240.13 1.62147 1243.55 1.72722C1260.01 2.18545 1265.93 6.94404 1268.54 18.0474C1270.13 24.7094 1270.41 30.6312 1270.55 36.5178C1270.83 48.8196 1260.54 54.7766 1252.15 52.1682C1252.75 62.4256 1252.47 65.1398 1251.94 74.375C1251.87 75.6439 1251.69 76.8424 1251.44 77.9703C1260.08 72.3658 1272.73 77.0539 1272.73 90.2369C1272.73 97.7449 1272.14 103.667 1270.69 109.87C1267.8 122.137 1262.65 125.204 1251.94 125.486ZM1214.82 82.5879C1214.68 85.6898 1214.64 85.6546 1215 88.263C1215.67 93.3388 1218.45 96.5112 1224.55 97.3572C1225.68 97.5334 1226.91 97.6039 1228.25 97.6039C1234.91 97.6039 1239.39 94.6078 1242.95 89.4967C1236.96 92.1403 1229.31 89.7787 1224.37 80.8255C1222.43 77.3006 1220.85 76.6661 1219.44 76.6661H1219.02C1216.83 76.6661 1214.96 79.1335 1214.82 82.5879ZM1214.82 40.8534C1214.82 46.2112 1216.83 49.1016 1219.02 49.1016H1219.44C1220.74 49.1016 1222.75 48.0794 1224.34 44.766C1227.97 37.258 1233.96 34.4028 1239.46 35.2136C1235.83 29.8557 1231.39 29.609 1227.69 29.609H1226.66C1220.18 29.609 1214.82 32.3584 1214.82 39.2672V40.8534Z" fill="white"/>
<path d="M1091.38 125.168C1077.67 124.464 1071.64 107.897 1082.25 99.9304C1086.73 96.5817 1089.12 93.3036 1089.34 84.7734C1089.55 75.6792 1089.51 59.923 1089.23 44.484C1089.09 35.9538 1087.93 32.7814 1079.96 25.2734C1072.17 17.9065 1076.08 2.64373 1091.84 2.00925C1101.46 1.62151 1111.79 1.72726 1127.05 2.32649C1152.15 3.31345 1171.82 16.0383 1171.82 36.976C1171.82 42.1576 1170.51 47.0572 1168.47 50.9698C1166.04 55.5874 1166.46 59.641 1169.35 63.3774C1175.27 71.0264 1177.14 78.3934 1177.14 85.6194C1177.14 111.95 1155.53 123.371 1130.44 124.781C1113.23 125.732 1102.66 125.768 1091.38 125.168ZM1124.44 39.8664C1124.44 45.9292 1126.17 47.7974 1128.92 47.7974H1129.48C1132.23 47.7974 1135.05 45.5062 1135.05 39.0205C1135.05 33.6274 1133.18 31.442 1130.4 30.8075C1126.7 29.9615 1124.44 32.1822 1124.44 37.963V39.8664ZM1124.58 86.9236C1124.58 94.8193 1127.09 97.1457 1133.15 96.5817C1137.94 96.1235 1140.9 91.8936 1140.9 86.3596C1140.9 79.5566 1137.59 76.5252 1132.52 76.2432H1131.95C1126.45 76.1022 1124.58 79.1336 1124.58 85.4784V86.9236Z" fill="white"/>
<path d="M991.696 125.168C977.103 124.428 973.084 107.156 983.271 99.754C987.783 96.4759 989.792 92.4223 989.968 83.7511C990.25 71.9075 990.391 60.4869 990.109 44.2019C989.968 36.5177 987.889 32.9576 980.874 25.1676C973.401 16.8489 978.09 2.78462 992.119 2.0444C1002.62 1.48041 1011.33 1.51566 1024.62 2.0444C1056.76 3.31335 1075.59 19.0696 1075.59 39.8663C1075.59 48.2203 1072.7 56.4685 1065.61 65.4217C1060.78 71.5197 1060.64 74.9036 1064.77 81.0369C1067.76 85.4783 1069.52 87.7694 1071.82 90.5893C1075.06 94.5372 1077.07 96.0882 1079.75 96.9341C1097.41 102.468 1094.06 124.886 1077.17 124.886H1065.75C1055.71 124.886 1050.31 121.573 1045.24 114.171C1041.15 108.178 1037.38 101.093 1031.98 92.9863C1029.83 89.7434 1028.32 88.1572 1026.66 88.1572H1026.52C1025.18 88.1572 1024.37 89.0736 1024.37 90.6598V90.9418C1024.37 93.4092 1026.84 96.0882 1031.84 98.6613C1044.08 104.936 1040.2 124.463 1024.76 125.168C1010.55 125.838 1003.08 125.732 991.696 125.168ZM1024.9 43.6027C1024.9 51.005 1027.65 53.0494 1031.39 51.9919C1037.03 50.4057 1038.19 45.9291 1038.19 41.1705C1038.19 35.6717 1035.58 31.4771 1030.96 30.4549C1027.65 29.7147 1025.01 31.3714 1024.9 36.694V43.6027Z" fill="white"/>
<path d="M964.589 125.486C960.923 125.591 956.835 125.662 952.57 125.732C945.379 125.838 937.554 125.873 929.834 125.873C916.228 125.838 903.01 125.627 894.444 125.133C879.005 124.217 875.339 107.826 885.491 99.9303C889.791 96.5817 892.224 92.1756 892.435 83.6101C892.647 74.1987 892.682 59.923 892.4 44.484C892.259 35.6718 890.496 32.9224 883.165 25.2734C875.939 17.7654 879.358 2.57319 894.762 2.0797C908.403 1.65672 920.493 1.44522 931.244 1.44522C936.249 1.40998 940.973 1.44522 945.449 1.51572C949.186 1.55097 952.781 1.62147 956.2 1.72722C972.661 2.18545 978.583 6.94404 981.192 18.0474C982.778 24.7094 983.06 30.6312 983.201 36.5178C983.483 48.8196 973.19 54.7766 964.801 52.1682C965.4 62.4256 965.118 65.1398 964.589 74.375C964.519 75.6439 964.343 76.8424 964.096 77.9703C972.732 72.3658 985.386 77.0539 985.386 90.2369C985.386 97.7449 984.787 103.667 983.342 109.87C980.451 122.137 975.305 125.204 964.589 125.486ZM927.472 82.5879C927.331 85.6898 927.296 85.6546 927.649 88.263C928.318 93.3388 931.103 96.5112 937.201 97.3572C938.329 97.5334 939.563 97.6039 940.902 97.6039C947.564 97.6039 952.041 94.6078 955.601 89.4967C949.609 92.1403 941.96 89.7787 937.025 80.8255C935.086 77.3006 933.5 76.6661 932.09 76.6661H931.667C929.482 76.6661 927.613 79.1335 927.472 82.5879ZM927.472 40.8534C927.472 46.2112 929.482 49.1016 931.667 49.1016H932.09C933.394 49.1016 935.403 48.0794 936.99 44.766C940.62 37.258 946.612 34.4028 952.111 35.2136C948.481 29.8557 944.039 29.609 940.338 29.609H939.316C932.83 29.609 927.472 32.3584 927.472 39.2672V40.8534Z" fill="white"/>
<path d="M833.358 127.072C790.601 127.072 767.937 97.8859 767.937 63.2363C767.937 31.3362 790.038 0 834.804 0C844.744 0 855.001 1.30421 864.659 4.4766C874.74 7.78998 878.406 13.0068 880.979 21.6428C882.425 26.4366 883.024 31.5477 883.024 38.8442C883.024 53.8954 860.993 59.3942 855.036 44.4487C850.348 32.6404 845.308 28.3048 832.759 28.3048C813.266 28.3048 806.358 41.7346 806.041 61.5091C805.618 86.3595 815.135 99.4721 835.79 99.4721C838.152 99.4721 839.597 99.4721 841.536 99.1901C845.343 98.6261 847.634 96.1939 847.634 91.8231V90.6599C847.634 88.0162 845.872 85.8308 842.1 84.1389C828.459 78.0056 831.772 57.9138 848.656 56.8915C858.314 56.3276 868.149 56.3276 877.666 56.8915C892.823 57.7728 896.489 75.8201 886.725 82.5879C884.011 84.4561 883.024 87.5932 883.024 92.2813V100.635C883.024 108.707 878.829 114.629 872.308 117.801C859.76 123.899 847.493 127.072 833.358 127.072Z" fill="white"/>
<path d="M625.673 125.168C610.093 124.181 606.427 107.861 616.614 99.9302C620.914 96.5816 623.346 92.1755 623.558 83.6101C623.769 74.1986 623.804 59.9229 623.522 44.4839C623.381 35.6717 621.619 32.9223 614.287 25.2733C607.061 17.7301 610.375 2.67886 626.096 2.00913C637.692 1.51565 646.751 1.51565 664.834 2.04438C704.172 3.24284 736.142 24.1454 736.142 64.1175C736.142 102.75 706.251 124.005 667.689 125.027C644.143 125.662 634.908 125.768 625.673 125.168ZM658.454 43.1797C658.313 53.2961 658.595 71.6255 658.736 83.7511C658.877 93.5855 662.931 96.8989 674.034 96.1586C687.182 95.3127 697.827 87.0644 698.144 63.5183C698.426 41.4173 689.015 32.4288 673.082 31.1951C662.508 30.3492 658.56 35.0372 658.454 43.1797Z" fill="white"/>
<path d="M525.848 125.168C511.255 124.428 507.237 107.156 517.423 99.754C521.935 96.4759 523.944 92.4223 524.121 83.7511C524.403 71.9075 524.544 60.4869 524.262 44.2019C524.121 36.5177 522.041 32.9576 515.027 25.1676C507.554 16.8489 512.242 2.78462 526.271 2.0444C536.775 1.48041 545.481 1.51566 558.77 2.0444C590.917 3.31335 609.74 19.0696 609.74 39.8663C609.74 48.2203 606.85 56.4685 599.765 65.4217C594.936 71.5197 594.795 74.9036 598.919 81.0369C601.915 85.4783 603.677 87.7694 605.968 90.5893C609.211 94.5372 611.22 96.0882 613.899 96.9341C631.559 102.468 628.21 124.886 611.326 124.886H599.906C589.86 124.886 584.467 121.573 579.391 114.171C575.302 108.178 571.53 101.093 566.137 92.9863C563.987 89.7434 562.471 88.1572 560.815 88.1572H560.674C559.334 88.1572 558.524 89.0736 558.524 90.6598V90.9418C558.524 93.4092 560.991 96.0882 565.996 98.6613C578.228 104.936 574.35 124.463 558.911 125.168C544.706 125.838 537.233 125.732 525.848 125.168ZM559.052 43.6027C559.052 51.005 561.802 53.0494 565.538 51.9919C571.178 50.4057 572.341 45.9291 572.341 41.1705C572.341 35.6717 569.733 31.4771 565.115 30.4549C561.802 29.7147 559.158 31.3714 559.052 36.694V43.6027Z" fill="white"/>
<path d="M411.254 125.028C397.225 123.159 392.502 107.861 404.698 98.9435C412.453 93.2684 415.872 89.955 420.066 79.6976C426.764 63.2717 436.88 37.1876 447.666 11.1035C453.729 -3.59524 470.12 -3.98298 476.676 11.879C486.757 36.3769 496.979 61.7913 504.099 78.6754C510.021 92.7044 513.017 95.5243 518.41 98.7672C529.866 105.676 528.033 122.877 510.233 125.169C499.094 126.614 488.801 126.614 478.403 125.169C461.942 122.877 460.602 108.143 468.78 100.389C471.459 97.8508 472.058 96.6523 472.235 95.2423C472.446 93.5152 471.741 92.1405 470.613 91.365C469.379 90.519 466.841 89.955 462.682 89.673C460.638 89.532 457.148 89.391 451.684 89.814C449.323 89.9903 448.371 90.1665 447.349 90.8715C446.045 91.788 445.622 93.2332 445.763 94.4316C445.904 95.8768 446.961 97.1105 449.288 98.3442C461.343 104.795 459.933 122.736 442.308 125.169C431.804 126.614 422.252 126.473 411.254 125.028Z" fill="white"/>
<path d="M302.335 125.028C288.8 124.005 283.16 109.201 291.831 101.376C298 95.8063 300.221 91.9642 300.326 83.6102C300.362 81.6011 300.362 79.2041 300.397 76.631C300.503 64.6816 300.538 48.4319 300.467 44.4841C300.256 34.7202 298.176 32.7815 292.254 26.1547C283.724 16.6023 289.364 2.60852 302.512 1.8683C309.738 1.44531 314.355 1.72731 318.973 2.18554C326.058 2.89052 330.076 4.30047 333.707 8.98856C351.155 31.6183 356.689 39.232 362.117 45.894C369.696 55.1997 374.701 52.838 374.419 42.1577V40.8535C374.278 34.2267 373.468 32.7815 366.876 27.4589C357.288 19.7394 361.694 3.17251 376.71 2.18554C388.061 1.44531 389.823 1.44531 401.42 2.18554C415.449 3.06676 420.454 19.7747 411.078 27.1417C405.579 31.4773 403.464 34.9669 403.394 44.9071C403.394 46.3523 403.394 47.8327 403.359 49.2779C403.288 67.7835 403.288 88.2983 403.641 109.201C403.923 125.874 383.69 131.654 374.208 118.93C364.056 105.288 353.411 91.4707 339.77 74.1988C334.13 67.0433 329.23 69.1582 329.23 77.8294V83.6102C329.336 91.8232 330.958 94.8546 337.761 101.058C346.537 109.025 341.673 124.005 326.904 125.063C315.519 125.874 313.897 125.909 302.335 125.028Z" fill="white"/>
<path d="M202.969 125.168C188.376 124.428 184.358 107.156 194.545 99.754C199.056 96.4759 201.066 92.4223 201.242 83.7511C201.524 71.9075 201.665 60.4869 201.383 44.2019C201.242 36.5177 199.162 32.9576 192.148 25.1676C184.675 16.8489 189.363 2.78462 203.392 2.0444C213.896 1.48041 222.603 1.51566 235.891 2.0444C268.038 3.31335 286.861 19.0696 286.861 39.8663C286.861 48.2203 283.971 56.4685 276.886 65.4217C272.057 71.5197 271.916 74.9036 276.04 81.0369C279.036 85.4783 280.798 87.7694 283.09 90.5893C286.332 94.5372 288.342 96.0882 291.02 96.9341C308.68 102.468 305.332 124.886 288.447 124.886H277.027C266.981 124.886 261.588 121.573 256.512 114.171C252.423 108.178 248.651 101.093 243.258 92.9863C241.108 89.7434 239.593 88.1572 237.936 88.1572H237.795C236.455 88.1572 235.645 89.0736 235.645 90.6598V90.9418C235.645 93.4092 238.112 96.0882 243.117 98.6613C255.349 104.936 251.471 124.463 236.032 125.168C221.827 125.838 214.354 125.732 202.969 125.168ZM236.173 43.6027C236.173 51.005 238.923 53.0494 242.659 51.9919C248.299 50.4057 249.462 45.9291 249.462 41.1705C249.462 35.6717 246.854 31.4771 242.236 30.4549C238.923 29.7147 236.279 31.3714 236.173 36.694V43.6027Z" fill="white"/>
<path d="M175.863 125.486C172.197 125.591 168.108 125.662 163.843 125.732C156.652 125.838 148.827 125.873 141.107 125.873C127.501 125.838 114.283 125.627 105.718 125.133C90.2787 124.217 86.6129 107.826 96.7645 99.9303C101.065 96.5817 103.497 92.1756 103.709 83.6101C103.92 74.1987 103.955 59.923 103.673 44.484C103.532 35.6718 101.77 32.9224 94.4381 25.2734C87.2121 17.7654 90.6312 2.57319 106.035 2.0797C119.676 1.65672 131.767 1.44522 142.517 1.44522C147.523 1.40998 152.246 1.44522 156.723 1.51572C160.459 1.55097 164.054 1.62147 167.474 1.72722C183.935 2.18545 189.857 6.94404 192.465 18.0474C194.051 24.7094 194.333 30.6312 194.474 36.5178C194.756 48.8196 184.464 54.7766 176.074 52.1682C176.674 62.4256 176.392 65.1398 175.863 74.375C175.792 75.6439 175.616 76.8424 175.369 77.9703C184.005 72.3658 196.66 77.0539 196.66 90.2369C196.66 97.7449 196.06 103.667 194.615 109.87C191.725 122.137 186.578 125.204 175.863 125.486ZM138.746 82.5879C138.605 85.6898 138.57 85.6546 138.922 88.263C139.592 93.3388 142.376 96.5112 148.474 97.3572C149.602 97.5334 150.836 97.6039 152.176 97.6039C158.838 97.6039 163.314 94.6078 166.874 89.4967C160.882 92.1403 153.233 89.7787 148.298 80.8255C146.36 77.3006 144.773 76.6661 143.363 76.6661H142.94C140.755 76.6661 138.887 79.1335 138.746 82.5879ZM138.746 40.8534C138.746 46.2112 140.755 49.1016 142.94 49.1016H143.363C144.668 49.1016 146.677 48.0794 148.263 44.766C151.894 37.258 157.886 34.4028 163.385 35.2136C159.754 29.8557 155.313 29.609 151.612 29.609H150.589C144.104 29.609 138.746 32.3584 138.746 39.2672V40.8534Z" fill="white"/>
<path d="M15.3045 125.168C1.59277 124.464 -4.43477 107.897 6.17511 99.9304C10.6517 96.5817 13.0486 93.3036 13.2601 84.7734C13.4716 75.6792 13.4364 59.923 13.1544 44.484C13.0134 35.9538 11.8502 32.7814 3.88394 25.2734C-3.90604 17.9065 0.00657504 2.64373 15.7628 2.00925C25.3857 1.62151 35.7136 1.72726 50.9763 2.32649C76.0735 3.31345 95.7423 16.0383 95.7423 36.976C95.7423 42.1576 94.4381 47.0572 92.3937 50.9698C89.9615 55.5874 90.3845 59.641 93.2749 63.3774C99.1967 71.0264 101.065 78.3934 101.065 85.6194C101.065 111.95 79.4573 123.371 54.3602 124.781C37.1588 125.732 26.5842 125.768 15.3045 125.168ZM48.3679 39.8664C48.3679 45.9292 50.0951 47.7974 52.8445 47.7974H53.4085C56.1579 47.7974 58.9778 45.5062 58.9778 39.0205C58.9778 33.6274 57.1096 31.442 54.325 30.8075C50.6238 29.9615 48.3679 32.1822 48.3679 37.963V39.8664ZM48.5089 86.9236C48.5089 94.8193 51.0116 97.1457 57.0744 96.5817C61.8682 96.1235 64.8291 91.8936 64.8291 86.3596C64.8291 79.5566 61.5157 76.5252 56.4399 76.2432H55.8759C50.3771 76.1022 48.5089 79.1336 48.5089 85.4784V86.9236Z" fill="white"/>
</svg>
